<svg viewBox="0 0 369.9130434782609 62.95142948483316" xmlns:xlink="http://www.w3.org/1999/xlink" xmlns="http://www.w3.org/2000/svg" height="62.95142948483316" width="369.9130434782609" style="width: 369.913px; height: 62.9514px; position: absolute; top: 50%; left: 50%; transform: translate(-50%, -50%) scale(1); z-index: 0; cursor: pointer; overflow: visible;"><defs id="SvgjsDefs1001"></defs><g id="SvgjsG1007" featurekey="S6ay6y-0" transform="matrix(0.6195103502827647,0,0,0.6195103502827647,-3.1913660567298425,-7.7343259628888905)" fill="#8971D0"><path xmlns="http://www.w3.org/2000/svg" d="M104.76 35.13a.37.35-71.1 0 1 .17.37l-.04.27a.18.18 0 0 1-.22.27L67.05 16.99a.75.74-45.4 0 0-.7.01Q48.57 26.68 27.5 36.16a.26.25-26 0 1-.33-.11l-.11-.23a.04.04 0 0 1 .02-.06l39.26-23.15a.87.87 0 0 1 .9 0z" fill="#8971D0"></path><path xmlns="http://www.w3.org/2000/svg" d="M98.57 66.25q-8.42.16-25.38.14-2.49 0-4.35-.61c-2.71-.9-5.19.7-8.06.66q-9.31-.12-27.04-.02a.38.37-.8 0 1-.38-.36l-.65-27.54a1.24 1.21-17.8 0 1 .56-1.06Q45.94 29.18 63.6 19.1q1.96-1.12 2.9-1.49a1.05 1.04-41 0 1 .89.06q16.47 8.98 31.93 19.3a1.04 1.02-73 0 1 .46.88l-.56 27.75a.66.66 0 0 1-.65.65M66.54 24.93l.07 3.94a.72.71 88.5 0 0 .73.7l2.06-.03a.92.92 0 0 0 .9-.97q-.14-2.75-3.16-4.05a.44.43-78.7 0 0-.6.41m-.98.17a.42.42 0 0 0-.6-.37q-2.86 1.37-2.89 4.04a.89.89 0 0 0 .91.9l1.99-.05a.7.69 89.2 0 0 .68-.71zm6.83 5.72q-.14-.16-.7.05-.5.19-.48.75.02.26.29.28a.85.67-12.4 0 0 .89-1.08m-9.538.695a1.08.73-15.3 0 0-1.235-.42 1.08.73-15.3 0 0-.849.99 1.08.73-15.3 0 0 1.235.42 1.08.73-15.3 0 0 .849-.99m3.678.055q-.47-.22-2.16-.24a.27.25-83.6 0 0-.26.22q-.06.43 0 .61a.4.39 75.7 0 0 .43.26l1.89-.25a.32.32 0 0 0 .1-.6m3.61.46q0-.03-.15-.37c-.25-.55-.72-.39-1.19-.29a.46.46 0 0 0-.05.89l.75.25a.49.49 0 0 0 .64-.48m.37 1.41q0 .45.34.88a.34.28-59.3 0 0 .53-.19q.17-.59-.46-.94a.28.28 0 0 0-.41.25m-5.07.88 1.92.14a.4.35 30.1 0 0 .15-.03q.25-.15.2-.6a.23.23 0 0 0-.23-.2q-1.57.03-2.12.37a.17.17 0 0 0 .08.32m-3.61.29a.55.5-27.9 0 0 .99.25q.21-.3.05-.79a.45.42-35.6 0 0-.76-.1q-.26.32-.28.64m20.92 20.31 9.06.14a.9.9 0 0 0 .92-.89l.09-6.22a5.15 4.97-89.1 0 0-4.88-5.23l-.92-.02a5.15 4.97-89.1 0 0-5.05 5.07l-.1 6.23a.9.9 0 0 0 .88.92m-43.45.24 8.64-.06a.96.96 0 0 0 .95-.97l-.04-6.53a4.43 4.26 89.6 0 0-4.29-4.4l-2.04.02a4.43 4.26 89.6 0 0-4.23 4.46l.05 6.53a.96.96 0 0 0 .96.95m17.78-10.5-.46 1.44a.51.51 0 0 0 .48.66l5.47.11a.71.71 0 0 0 .73-.73q-.04-2.13-2.69-2.74-5.5-1.27-5.98 3.98-.32 3.61-.1 6.85a.76.75-1.2 0 0 .75.71l9.22.19a.86.85-88.7 0 0 .87-.84c.06-3.01.88-8.17-1.91-10.53a.26.26 0 0 0-.38.05l-.05.05a.26.25 36 0 0 .06.35q1.27.9 1.38 1.85.23 2.15.03 7.75a.55.54 1.6 0 1-.56.52l-7.85-.16a.48.47-.6 0 1-.47-.45q-.22-5.11.24-7.63.11-.59 1.16-1.47a.04.04 0 0 1 .06.04m14.25-.97q.03-.26-.08-.32a.42.41-45.7 0 0-.42.01q-2.25 1.39-2.42 3.4-.36 4.22-.3 7.54a.56.56 0 0 0 .55.55l9.34.19a1.1 1.09 1.6 0 0 1.12-1.05c.22-5.67.84-12.77-7.73-10.26a.05.05 0 0 1-.06-.06m-8.266 4.375a.61.61 0 0 0-.61-.61l-5.02-.01a.61.61 0 0 0-.61.61l-.008 4.04a.61.61 0 0 0 .61.61l5.02.01a.61.61 0 0 0 .61-.61z" fill="#8971D0"></path><circle xmlns="http://www.w3.org/2000/svg" cx="86.88" cy="43.11" r=".03" fill="#8971D0"></circle><path xmlns="http://www.w3.org/2000/svg" d="M85.4 44.14q-1.3.68-1.31 2.13a.54.54 0 0 0 .53.55l5.37.11a.43.43 0 0 0 .44-.42l.03-1.74a.2.2 0 0 1 .33-.15q.69.57.8 1.34.36 2.56.42 6.75a1.59 1.58-89.8 0 1-1.61 1.61l-6.02-.12a1.63 1.62-87.2 0 1-1.58-1.75c.26-3.48-.28-6.89 2.52-8.74a.13.13 0 0 1 .18.04v.01a.27.26-30.9 0 1-.1.38m5.019 3.784a.53.53 0 0 0-.533-.527l-5 .026a.53.53 0 0 0-.527.533l.022 4.2a.53.53 0 0 0 .533.527l5-.026a.53.53 0 0 0 .527-.533zM75.69 47.3q-.5.26-4.46.1a.81.81 0 0 0-.85.83l.09 3.96a.72.71-1.2 0 0 .73.69l5.12-.12a.39.39 0 0 0 .38-.4l-.19-7.9a.33.33 0 0 1 .63-.14q1.74 4 1.13 9.19a.64.64 0 0 1-.61.57l-7.8.18a.71.71 0 0 1-.73-.68q-.2-4.61.44-7.71.08-.39.3-.59a.35.35 0 0 1 .59.25l.03 1.14a.33.33 0 0 0 .34.32l4.75-.11a.22.22 0 0 1 .11.42M47.03 44.86c1.37 1.87 1.15 5.44 1.13 9.09a.48.48 0 0 1-.49.47l-7.74-.16a.45.44 88.6 0 1-.44-.43q-.25-4.9.18-7.87.09-.63.54-.63a.3.3 0 0 1 .31.31l-.02 1a.44.43 83.4 0 0 .54.43q1.95-.48 4.66-.01a.14.14 0 0 1 .12.15v.01a.2.2 0 0 1-.2.19l-4.47-.03a.54.54 0 0 0-.54.53l-.08 4.28a.58.58 0 0 0 .57.6l5.13.1a.27.27 0 0 0 .28-.27l.15-7.65a.2.2 0 0 1 .37-.11M93.63 68.79a.12.12 0 0 1 .12-.12l1.83.04a.49.48-2.7 0 1 .47.42c.32 2.67-.19 9.04 1.8 12.76a1.74 1.74 0 0 0 3.19-.3l.23-.74a1.33 1.33 0 0 1 2.22-.52q.98 1.03 1.11 2.23a.88.87-2.2 0 0 .85.78l2.3.04a.45.44 1.3 0 0 .46-.43l.02-1.23a.81.81 0 0 1 1.09-.74q1.82.66 2.4 2.03.53 1.28.86 1.28l1.68.34a.59.58-83.4 0 0 .7-.56l.02-.97a1.11 1.11 0 0 1 1.6-.97q2.33 1.16 2 2.54a.73.73 0 0 0 .5.88l1.89.6a.62.62 0 0 0 .8-.51l.2-1.37a.85.84-86.4 0 1 .82-.73q.61-.01 1.88.97c1.53 1.19.02 3.08 2.8 4a.7.7 0 0 1-.23 1.37l-1.28-.03a.43.42-81.2 0 0-.42.31l-2.1 6.64a1.16 1.12 39.7 0 0 .1.91l.26.45a.72.72 0 0 1-.26.98q-8.05 4.58-18.55 8.26c-32.62 11.45-66.72 7.95-96.91-8.41a.79.78 53.2 0 1 .21-1.46l1.08-.23a.54.54 0 0 0 .42-.64L8.13 88.8a.29.28 68.2 0 0-.42-.19q-1.36.81-1.99.52a1.09 1.03-35.9 0 1 .38-1.99q.61-.1 1.35-.48a.91.9 77.9 0 0 .5-.78q.08-1.82 1.59-3.23a1.33 1.11-29.4 0 1 2.12.39q.14.78.08 1.45a.53.52 86.8 0 0 .63.57l1.98-.42a1.02 1.02 0 0 0 .8-.87q.21-1.86 2.43-2.6a.71.71 0 0 1 .86.35q.35.7.34 1.78a.45.44-3.9 0 0 .51.44c1.54-.21 2.43-.17 3.03-1.59q.4-.93 1.03-1.48a1.31 1.31 0 0 1 2.18.96l.03 1.02a.5.5 0 0 0 .61.48l2.48-.52a.79.78 89 0 0 .61-.64q.21-1.34.79-1.82c1.16-.96 2.62.56 2.72 1.66a1.21 1.1-22.5 0 0 1.9.68q1-.74 1.66-2.03a.56.45 65 0 0 .06-.25l.37-9.81a1.22 1.18-22.3 0 1 .34-.78l1.93-1.92a.49.49 0 0 1 .84.34l.35 14.31a.49.48 9.2 0 0 .34.46l.25.08a.58.57 8 0 0 .75-.56l-.31-12.86a.64.63 3.1 0 1 .72-.64c3.33.43 3.85-.58 6.37-1.37a1.36 1.36 0 0 1 1.1.13l2.68 1.61a1.34 1.34 0 0 0 1.08.14q2.28-.7 3.78-1.8a.65.65 0 0 1 .84.05q.43.4 1.97.46a.46.45 17.9 0 1 .36.7q-1.99 3.15-2.03 4.74-.14 6.38.58 14.26a.89.89 0 0 0 .91.82l15.43-.37a.56.55-88.3 0 0 .54-.52q.31-3.9.57-11.67.14-4.34-2.34-7.68-.32-.42-.28-.68.03-.24.2-.37a.4.4 0 0 1 .52.02q2.5 2.37 5.47.62a.84.82-51.6 0 1 .65-.08l3.78 1.2a1.05 1.04 37.9 0 0 .85-.1l1.87-1.08a1.56 1.55-40.8 0 1 1.73.12q1.61 1.26 3.29.75a.35.35 0 0 1 .45.33l.32 13.26a.13.12-5.8 0 0 .15.12l.26-.05a.72.71 84 0 0 .56-.7zM41.518 85.123a.53.53 0 0 0-.547-.513l-.12.004a.53.53 0 0 0-.513.546l.184 5.857a.53.53 0 0 0 .547.513l.12-.004a.53.53 0 0 0 .513-.546zm58.582-.513-1.96-.02a.23.23 0 0 0-.23.22v.21a7.04 1.15-89.2 0 0 1.05 7.06h.12a7.04 1.15-89.2 0 0 1.25-7.02v-.21a.23.23 0 0 0-.23-.24m-73.73.63a.5.49 78.4 0 0-.38.59l1.56 7.37a.49.48-11.5 0 0 .57.37l.38-.08a.51.51 0 0 0 .4-.51l-.19-7.93a.26.25-6.7 0 0-.31-.24zm8.86-.59-1.58.06a.33.33 0 0 0-.32.35l.01.18a7.39.76 87.8 0 0 1.04 7.35l.72-.03a7.39.76 87.8 0 0 .48-7.41l-.01-.18a.33.33 0 0 0-.34-.32m57.724.001a.93.28-86.7 0 0-.333.913.93.28-86.7 0 0 .226.945.93.28-86.7 0 0 .333-.913.93.28-86.7 0 0-.227-.945M21.58 85.6l-1.77.33a.24.24 0 0 0-.19.28l.02.14a8.72 1.13 79.4 0 0 2.72 8.36h.02a8.72 1.13 79.4 0 0-.5-8.78l-.02-.14a.24.24 0 0 0-.28-.19m83.85 7.23q.59.07.72-.65.83-4.52 1.4-5.82a.57.56-66.7 0 0-.29-.74q-.05-.02-.95-.13-.89-.11-.95-.1a.57.56 80.4 0 0-.45.65q.25 1.4-.02 5.99-.04.73.54.8m8.22-6.06-1.51-.33a.25.25 0 0 0-.3.19l-.03.16a7.54 1.01-77.6 0 0-.63 7.59h.02a7.54 1.01-77.6 0 0 2.6-7.15l.04-.16a.25.25 0 0 0-.19-.3m-98.81.31-2.1.54a.26.26 0 0 0-.18.32l.04.15a8.66 1.31 75.6 0 0 3.42 8.06l.06-.01a8.66 1.31 75.6 0 0-.89-8.71l-.04-.16a.26.26 0 0 0-.31-.19m105.78 1.35-1.56-.5a.32.32 0 0 0-.41.21l-.05.18a7.39.8-72.2 0 0-1.5 7.28l.65.2a7.39.8-72.2 0 0 3.02-6.79l.06-.18a.32.32 0 0 0-.21-.4" fill="#8971D0"></path><path xmlns="http://www.w3.org/2000/svg" d="M60.09 87.54a.39.39 0 0 1-.39-.4l.03-9.87a8.68 7.08-89.8 0 1 7.11-8.65h.58a8.68 7.08-89.8 0 1 7.05 8.71l-.03 9.87a.39.39 0 0 1-.39.38z" fill="#8971D0"></path></g><g id="SvgjsG1008" featurekey="j5pGhi-0" transform="matrix(3.0421261738461927,0,0,3.0421261738461927,93.93135418002561,-8.191916028222984)" fill="#8971D0"><path d="M0.68 20 l0 -0.54 l0.78 -0.84 c0.16 -0.18 0.26 -0.4 0.26 -0.64 l0 -9.92 c0 -0.24 -0.1 -0.48 -0.26 -0.64 l-0.78 -0.84 l0 -0.58 l6.26 0 c2.44 0 4.38 2.06 4.22 4.54 c-0.12 2.26 -2.14 4 -4.36 4 l-0.5 0 l1.5 0.28 l2.12 2.68 c0.48 0.6 1.08 1.16 1.72 1.62 l0.46 0.34 l0 0.54 l-3.76 0 l0 -0.54 c0.3 -0.38 0.3 -0.88 0 -1.2 l-3 -3.72 l-1.44 0 l0 3.78 l1.02 1.14 l0 0.54 l-4.24 0 z M3.9 13.86 l2.34 0 c2 0 3.62 -1.6 3.62 -3.6 s-1.62 -3.6 -3.62 -3.6 l-2.34 0 l0 7.2 z M20.96 16.94 l1.48 0 c-0.7 1.9 -2.54 3.26 -4.76 3.26 c-2.82 0 -5.06 -2.26 -5.06 -4.98 c0 -2.78 2.24 -5.04 5.06 -5.04 c2.78 0 5.04 2.2 5.08 4.94 l-8.12 0 c0.08 0.24 0.12 0.5 0.2 0.78 c0.64 2.2 2.16 3.78 3.7 3.78 c1.44 0 2.22 -1.36 2.42 -2.74 z M14.540000000000001 14.3 l6.14 0 c-0.68 -2.08 -2.28 -3.4 -3.78 -3.4 c-1.52 0 -2.38 1.46 -2.38 2.96 c0 0.14 0 0.3 0.02 0.44 z M23.780000000000005 20 l0 -0.54 c0.66 -0.7 1.02 -1.66 1.02 -2.62 l0 -3.32 c0 -0.98 -0.36 -1.92 -1.02 -2.62 l0 -0.56 l3.18 0 l0 1.12 c0.68 -0.38 1.46 -0.62 2.18 -0.62 c2.34 0 3.62 1.42 3.62 4.88 l0 1.12 c0 0.96 0.38 1.92 1.06 2.62 l0 0.54 l-4.28 0 l0 -0.54 c0.68 -0.7 1.06 -1.66 1.06 -2.62 l0 -2.42 c0 -1.56 -1.42 -3.1 -2.82 -2.72 c-0.5 0.14 -0.82 0.62 -0.82 1.14 l0 4.02 c0 0.94 0.4 1.9 1.04 2.6 l0 0.54 l-4.22 0 z M35.220000000000006 16.48 l0 -5.32 l-1.48 0 l0 -0.82 l1.48 0 l0 -3.32 l2.18 -1.04 l0 4.36 l1.44 0 l0 0.82 l-1.44 0 l0 5.2 c0 0.78 0.3 1.46 0.68 1.96 c0.22 0.3 0.48 0.52 0.76 0.68 l0 1.1 c-0.46 -0.02 -0.94 -0.12 -1.44 -0.32 c-1.16 -0.48 -2.18 -1.46 -2.18 -3.3 z M40.06 18.76 l0 -1.84 l1.1 0 l0.94 1.06 c0.84 0.94 1.94 1.12 3.26 1.14 c1.58 0 3.06 -0.52 3.06 -1.84 c0 -1.62 -2.8 -3.2 -4.4 -4.1 c-1.38 -0.78 -3.7 -1.88 -3.7 -3.54 c0 -3.08 3.88 -3.64 4.96 -3.64 c1.34 0 2.7 0.3 4.14 0.9 l0.04 1.82 l-1.14 0 l-0.66 -0.8 c-0.64 -0.76 -1.62 -1.2 -2.58 -1.2 c-1.7 0 -2.64 1.2 -2.64 1.88 c0 1.42 2.88 2.44 5.68 4.28 c1.58 1.04 2.3 2.28 2.3 3.44 c0 1.96 -1.98 3.74 -5 3.74 c-3.66 0 -5.36 -1.3 -5.36 -1.3 z M51.62000000000001 20 l0 -0.54 c0.66 -0.7 1.08 -1.66 1.08 -2.62 l0 -3.7 c0 -0.78 -0.32 -1.46 -0.84 -2 l-0.22 -0.24 l0 -0.56 l3.22 0 l0 1.12 c0.64 -0.38 1.38 -0.62 2.14 -0.62 c1.08 0 1.94 0.3 2.54 1 c0.76 -0.5 1.9 -1 3 -1 c2.34 0 3.62 1.42 3.62 4.88 l0 1.12 c0 0.96 0.36 1.92 1.04 2.62 l0 0.54 l-4.26 0 l0 -0.54 c0.68 -0.7 1.06 -1.66 1.06 -2.62 l0 -2.42 c-0.02 -1.56 -1.4 -3.08 -2.8 -2.68 c-0.38 0.12 -0.9 0.46 -1.18 0.8 c0.4 0.74 0.58 1.82 0.58 3.18 l0 1.12 c0 0.96 0.42 1.92 1.06 2.62 l0 0.54 l-4.26 0 l0 -0.54 c0.68 -0.7 1.04 -1.66 1.04 -2.62 l0 -2.42 c0 -1.56 -1.38 -3.1 -2.82 -2.72 c-0.48 0.14 -0.76 0.62 -0.76 1.14 l0 4.02 c0 0.94 0.32 1.9 0.98 2.6 l0 0.54 l-4.22 0 z M76.08000000000001 20 l-0.54 -0.14 c-0.9 -0.24 -1.88 -0.24 -2.72 0.02 c-0.34 0.1 -0.66 0.12 -0.98 0.12 c-1.96 0 -3.52 -1.54 -3.52 -3.48 c0 -1.9 1.56 -3.46 3.52 -3.46 c0.78 0 1.48 0.24 2.02 0.62 l0 -0.02 s0.16 -2.44 -0.92 -2.74 c-1.12 -0.32 -1.52 0.34 -2.34 1.58 l-1.68 -0.02 c0.52 -1.32 1.54 -2.24 2.98 -2.24 c0.54 0 1.1 0.1 1.64 0.26 c0 0 2.54 0.78 2.54 3.16 l0 6.34 z M69.94 17.02 c0.46 1.5 1.6 2.56 2.76 2.3 c1.12 -0.26 1.64 -1.72 1.18 -3.28 c-0.44 -1.48 -1.74 -2.54 -2.86 -2.26 c-1.14 0.28 -1.54 1.72 -1.08 3.24 z M77.72000000000001 20 l0 -0.5 c0.68 -0.74 1.02 -1.66 1.02 -2.66 l0 -3.3 c0 -0.98 -0.34 -1.92 -1.02 -2.62 l0 -0.58 l3.22 0 l0 1.04 c0.62 -0.62 1.8 -1.1 2.62 -1.1 c0.86 0 1.46 0.32 1.46 0.32 l-0.42 1.82 s-0.9 -0.74 -2 -0.74 c-1.46 0 -1.66 0.98 -1.66 1.24 l0 3.92 c0 1 0.38 1.92 1.02 2.66 l0 0.5 l-4.24 0 z M87.10000000000001 16.48 l0 -5.32 l-1.48 0 l0 -0.82 l1.48 0 l0 -3.32 l2.18 -1.04 l0 4.36 l1.44 0 l0 0.82 l-1.44 0 l0 5.2 c0 0.78 0.3 1.46 0.68 1.96 c0.22 0.3 0.48 0.52 0.76 0.68 l0 1.1 c-0.46 -0.02 -0.94 -0.12 -1.44 -0.32 c-1.16 -0.48 -2.18 -1.46 -2.18 -3.3 z" fill="#8971D0"></path></g></svg>